<?xml version="1.0" encoding="utf-8"?>
<!-- Generator: Adobe Illustrator 15.0.0, SVG Export Plug-In . SVG Version: 6.00 Build 0)  -->
<!DOCTYPE svg PUBLIC "-//W3C//DTD SVG 1.1//EN" "http://www.w3.org/Graphics/SVG/1.1/DTD/svg11.dtd">
<svg version="1.1" id="Layer_1" xmlns="http://www.w3.org/2000/svg" xmlns:xlink="http://www.w3.org/1999/xlink" x="0px" y="0px"
	 width="2040.5px" height="1178.5px" viewBox="0 0 2040.5 1178.5" enable-background="new 0 0 2040.5 1178.5" xml:space="preserve">

<!--  #################################  -->

<!--  #################################  -->

<g id="trail-path" display="none">
	<path display="inline" fill="none" stroke="#010101" stroke-width="5" stroke-miterlimit="10"
		  d="M148,1146c1.1-2,13.8-501.5,33.2-533.7c7.6-12.6-1.1-43,7.6-57.3c10.4-17.1,24.3-24.2,34.7-41.3
		c12.4-20.5,15.6-40.3,22.7-57.3c5.2-12.5,14.6-21.4,18.7-29.3c1-1.9,3.3-5.6,5.6-17.9c1-5.2-6.3-17.6-5.2-23.9
		c1.3-7.6,27.1-10.2,27.5-18.8c0.8-16.7,1.5-24.2,1.9-39.5c0.3-11.5-6.4-23.3-7.3-34c-1.1-13.1,1.9-22.5,1.9-22.5
		c7.1-2.1,13.7-5.6,36.8,13.3c7.7,6.3,24.6-7.2,35.7-13.5c8.1-4.6,7.7-8.4,15.7-12.2c14.8-7,13.7-9.7,30.2-27.5
		c6.9-7.5,17.6,1.1,28.2-7.3c8.4-6.7,10.5-18.5,20.3-26.3c9.8-7.9,21.9-11.2,32.8-19.7c5.9-4.6,16.5,2.9,22.7-1.8
		c5.8-4.5,17.5-16.5,14.3-23.2c-4.8-9.9-3.1-15.8-5.8-22.7c-3.1-8.1,0.3-15.1,5.3-21.3c5.5-6.8,25.3-10.3,30.7-14.7
		c11.4-9.1,23.6-34,34.2-34.2c12-0.2,23.8,33.6,34.2,40.9c32.8,23,111.1,41.5,125.6,40.9c30.1-1.3,29.7-8.8,53.5-7.2
		c3.6,0.3,30.3,12.1,34.4,12.6c34.7,4,51.4-2.1,72.3,4.4c9.1,2.8,20,4.9,28.7,9.2c7.3,3.6,9.5,10.2,15.5,14.5
		c8.4,6,19.4,5.3,25.2,10.2c3.6,3.1,3.9,8.7,5.7,13.3c2,5.3,5.4,9.7,6.7,14.2c3.3,11.3,11.8,26.3,14.7,37.2
		c7.3,27.9,13.2,46.4,10.7,54.8c-0.9,3-5.6,21.2-3.2,41c1.2,10.1,8.3,19,10.8,28.5c4.6,17.1,5.9,32.8,11.6,38.4
		c4.4,4.3,5.4,13.7,9.9,17.4c4,3.2,14.7,8,19.2,11.2c10.8,7.8,21.5,8.2,38.2,20.2c15.4,11.1,33.8,3,40-0.7c0.5-0.3,10.7-4.4,14-12.7
		c1.9-4.9,5-12.3,7.6-16.6c3.7-6.1-0.5-12.8,3.9-11.1c2.5,1,11,6.4,18.6,8.6c7.9,2.2,14.9,1.1,18.2,2.4c5.3,2.2,1.8,19.8,7.3,22.9
		c4.3,2.4,4.4,1.6,8.8,4.4c3.1,2,0,9.7,3.1,11.9c3.9,2.7,5.3,10.4,9.3,13.1c5.8,3.9,9.3,15.2,15.2,19c2.6,1.7,14-1.7,16.4-3.6
		c4.4-3.6,16.3-8.3,20.6-5.8c7.7,4.5,23.7-16,30.5-12.3c4.9,2.7,4.1,11.2,6.8,15.5c2.7,4.2,7.8,1.2,9,6.2c1.1,4.6-2.7,12.8-1.2,16
		c1.3,2.8,4.6,5.3,5.3,8.2c0.3,1.3,1.7,16-4,14.6c-1-0.2,5-2.9,5.2-8.3c0.2-5.8-5.2-14.1-6.5-14.5c-1.4-0.4-0.6-7.7,0.7-14.5
		c1.3-7.1-7.3-7.9-8.9-8.4c-3.5-1.1-2.6-13.5-6.4-14.7c-5.3-1.7-25.3,14-30.5,12.3c-5.3-1.7-17,2.4-20.6,5.8
		c-0.9,0.8-9.6,5.6-16.4,3.6c-4.8-1.3-12.6-16.7-15.2-19c-6.6-5.9-5.2-11.1-9.3-13.1c-5.2-2.6,1.8-11.3-4.4-12.7
		c-4.2-0.9-3.1-3-7.5-3.6c-4.1-0.6-3.3-21.8-7.6-22.2c-1.7-0.2-11.2-0.3-20.5-3.3c-6.3-2-12.3-6.8-16.1-8.4c-1.4-0.6-1.1,5.2-5,13
		c-2.5,5-5.1,12.2-7.8,17.2c-3.7,6.8-28.5,16.1-30.1,16.2c-16.1,0.2-48.6-20.5-59.4-24.5c-18.7-7-24.1-21.5-26.1-21.8
		c-8.8-1.5-14.2-35.7-15.4-41c-5.2-23.5-12.7-20.8-11.4-33.6c1.8-17,1.9-36.1,3.1-53.2c1.6-24.2-12.1-47.1-17.6-60.6
		c-9-22.5-14-31.6-20-46.6c-2.5-6.3-18.5-6.7-25.2-10.2c-9.1-4.7-7.7-18.2-39.4-22.3c-16.1-2.1-38.8-5-44.3-5.3
		c-17.5-1.2-20.2,1.9-36.3-2c-12.7-3.1-36.9-14.6-48.4-10.3c-20.9,7.8-52.1,6.1-77.8-1.4c-11-3.2-54.9-11.4-81.1-31.4
		c-23.5-18-29.5-48.7-36.8-42.6c-8.5,7.1-16.8,13.8-34.2,34.2c-8.9,10.5-17.3,5.2-30.7,14.7c-2.5,1.8-6.6,8.3-6.5,16.2
		c0.2,12.2,4.9,27.9,6.7,34.1c1.8,5.9-9.7,13.2-17.1,18.3c-1.8,1.3-15.4-2-17.2-0.7c-3.7,2.6-28,15.7-31.7,18.3
		c-8.2,5.7-13.8,21.6-22,27.3c-7.7,5.3-21,1.3-28.5,6.5c-7.7,5.3-24.3,24.9-31.7,30c-4.2,2.9,0.2,10.7-3.8,13.4
		c-22.7,15.5-18.8,10.3-32.6,42.4c-1.3,3.1,5.9,7.8,2.2,11.1c-4.9,4.3,2.5,21.9,1,28.7c-1.1,5.1-16.1,19.5-15.5,24.7
		c0.9,7.7,53.3-1,53.6,0.2c0.7,3.6-42.4,55.6-39.6,66c1.9,6.7-33,10.4-31.6,16.2c0.4,1.6-29.4,21.6-22.1,23.2c17.9,4,8.7-12.3,43-9
		c9.2,0.9,2.4,18.1,12.7,19c4.6,0.4,10.8,19.5,19.5,34.5c10.1,17.4,22.6,33.1,26,28.9c1.6-2,9.8-5.6,15.1-9.6
		c6.9-5.2,8.2-10,11.2-11.9c2.5-1.6,4.6-8.9,6.1-12.5c1.3-3.1,5.6-6.5,6-9.3c0.1-1,1.9-5.8,5.4-10.1c2.8-3.4,22,0.3,28.4-1.6
		c6.6-1.9,28.2-1.6,32.2-5.8c4.9-5,24.5-10.1,32.7-10.7c6-0.4,14.1,13.8,22.9,15.6c2.4,0.5,5.4,10.2,10,11.6
		c2.3,0.6,6.4,9.2,12.2,6.9c6.5-2.6,15.3-18.5,18.4-20c6.9-3.3,21-15.8,27.8-18c9.2-3,13.3-17.1,22.2-18.4c9.2-1.4,4.9-17,13.6-17.1
		c16.7-0.2,31.5-12.6,45.6-10c3.9,0.7,0.7,7.8,4.2,9.1c2.8,1.1,4.5,4.1,7.1,5.6c1.7,0.9-4.9,7.4-3.3,8.4c2.9,1.9,0.5,10.8,3.1,13.1
		c3,2.6,13.7-0.3,16.7,2.4c2.2,2-10.4,10.4-8.2,12.4c1.9,1.8,5.2,12.2,7.1,14c3.9,3.8,3.3,12.9,7.3,16.2c3.5,2.9,10.7,4.9,14.2,7.6
		c4.2,3.2,8.1,11.1,12.2,13.8c3.8,2.4,8.4-0.2,12,1.8c10.9,6,20.9,4.9,28.2,6.2c2.3,0,4.9-1.4,8.4,0.9c1.7,1.1-0.2,5,1.3,6.4
		c2.6,2.4,9.1,5.5,10.2,8.4c0.9,2.5,0.5,6.6,1.3,9.6c0.8,3,4.5,4.4,5.3,7.8c0.6,2.4,2.3,9.7,2.9,12.2c0.8,3.4,4.7,10.3,5.6,13.8
		c3.6,14.9,4.2,25.7,7.1,34.4c1.6,4.8,2.5,9.6,8.2,12.9c6,3.4,14.3-1.5,24-5.6c6.4-2.6,12.7-10.2,21.1-12.4c1.7-0.4,4.1-0.2,9.6-7.3
		c1.8-2.4,6.1-0.3,8.7-2c10-6.5,16.4-8.1,26.8-14.6c4.5-2.8,12.5-3.3,16.7-7c5.9-5,13.5-9.8,19.1-16c1.8-2-1.9-7.9,0-10.1
		c2.5-2.9,6.7-0.5,9.2-3.5c4-4.8,15.1-4.7,19.2-9.7c2.6-3.1,8.4-16.7,11-19.8c7.2-8.6,12.7-18.9,19.3-26.7c3.4-4,10-9.1,13.7-12.7
		c5.3-5.2,6.8-2.4,14-4c4.5-1,14.7,6.2,20.8,4c2.6-0.9,6.4,0.4,10.2-0.8c5.5-1.9,11.2-6.3,16-6.8c3.2-0.1,7,0.2,11.2,0.9
		c2.6,0.4,2.4,5.9,5.3,6.5c3.9,0.8,4,1.9,8.3,3c3.7,0.9-1.5-6.6-3.8-14.5c-2.5-8.5-2.2-17.5,2.3-16.2c0.8,0.2,3.4-2.5,7.1-6.9
		c2.5-3,5.5-6.7,8.7-10.9c5.5-7.1,6.3-15,12-22.4c9.1-11.7,5.3-19.4,6.8-18.9c5.7,1.8,13,7.2,20.9,9.2c7.3,1.8,15.2,0.1,18.9,4.5
		c3.5,4.1-0.3,13,3,17.5c3,4,9.4,6.4,12.5,10.3c1.5,1.9-0.4,5.2,0.5,7.3c1.4,3.3,4.2,5.9,6,8.7c2.4,3.7,9.5,15.5,13.4,17.6
		c4,2.1,7.9,6.9,12.5,7.3c5.9,0.5,11.2-5.5,17.3-7.3c2.7-0.8,6.1-2.1,8.8-2.2c3.7-0.1,6.9,1.3,10.3,0.2c7.7-2.4,14-8.3,18-10.5
		c3.7-2.1,7.9-3,11.2-5.4c2.7-2,4.5-5.5,6.9-7c6.9-4.2,13.5-2,18.4-5.3c4.3-2.9,9-7.6,12-9.8c2.1-1.6,62.3-79.1,65.9-77.3
		c10.9,5.4,26.5,13.7,47.1,24.2c1,0.5,13.3,49.9,13.3,49.9c1.4,0-13.3-49.9-13.3-49.9c-19.5-9.7-72.5-36.3-72.5-36.3l-2.5-18.3
		l-34.8-28.3c0,0-40,5.8-40,5.8c9.4,0.5,40-5.8,41.6-4.5c8.1,6.6,27.2,22.1,33.3,27c0,0,2.3,16.7,2.5,18.3c0,0,21.1,11.7,25.4,12.2
		c7.2,0.8,17.6-17.8,25.1-18.5c8.8-0.9,20.7-5.9,29.5-8.3c6.6-1.9,19.9-8.7,15.9-14.3c-4.3-6-24.8-15.6-20.3-17.6
		c4.8-2.2,35.3-4.6,40.3-4c6,0.7,22.8,27.8,26.3,25.7c18.3-11.3,33.8-21.6,33.8-21.6"/>
</g>
<g id="camera-path" display="none">
	<path display="inline" fill="none" stroke="#EC2227" stroke-width="3" stroke-miterlimit="10"
		  d="M177.3,1146c0,0,26.9-463.7,102.7-585c65.1-104.3,169.4-90.6,257-191c35-74.1,136.8-128.9,250-87
		c29,10.7,70.6,136,157,186c35.1,20.3,108.2,53.1,177,76c48.4,16.1,93.1,6.2,145-3.9c47.8-9.3,64.3-194.2,104-222.4
		c62.4-44.4,173,70.3,173,70.3"/>
</g>
<g id="points" display="none">
	<circle id="Sud_de_la_France" display="inline" fill="#405b54" cx="148" cy="1146" r="5.8"/>
	<circle id="Chalet" display="inline" fill="#405b54" cx="1333.5" cy="541.1" r="5.8"/>
	<circle id="Les_Houches" display="inline" fill="#405b54" cx="1249.7" cy="502.1" r="5.8"/>
	<circle id="Annecy" display="inline" fill="#405b54" cx="289" cy="484" r="5.8"/>
	<circle id="Chamonix" display="inline" fill="#405b54" cx="1425.2" cy="377.5" r="5.8"/>
	<circle id="Aiguille_du_Midi" display="inline" fill="#405b54" cx="1485.6" cy="451.6" r="5.8"/>
	<circle id="Brévent" display="inline" fill="#405b54" cx="1322.5" cy="324.5" r="5.8"/>
	<circle id="Montenvers" display="inline" fill="#405b54" cx="1575.8" cy="318.7" r="5.8"/>
	<circle id="Montenvers_Mer_de_glace" display="inline" fill="transparent" cx="1575.8" cy="318.7" r="5.8"/>
</g>
</svg>
