<?xml version="1.0" encoding="utf-8"?>
<!-- Generator: Adobe Illustrator 15.0.0, SVG Export Plug-In . SVG Version: 6.00 Build 0)  -->
<!DOCTYPE svg PUBLIC "-//W3C//DTD SVG 1.1//EN" "http://www.w3.org/Graphics/SVG/1.1/DTD/svg11.dtd">
<svg version="1.1" id="Layer_1" xmlns="http://www.w3.org/2000/svg" xmlns:xlink="http://www.w3.org/1999/xlink" x="0px" y="0px"
	 width="2040.5px" height="1178.5px" viewBox="0 0 2040.5 1178.5" enable-background="new 0 0 2040.5 1178.5" xml:space="preserve">
<style type="text/css">
	.st0{fill:#939598;}
	.st1{font-family:'barlowregular';}
	.st2{font-size:18px;}
	.st3{fill:#A8AAAD;}
	.st4{fill:none;stroke:#010101;stroke-width:5;stroke-miterlimit:10;}
	.st5{fill:none;stroke:#EC2227;stroke-width:3;stroke-miterlimit:10;}
	.st6{fill:#405B54;}
</style>
<!--  #################################  -->
<g>
	<text transform="matrix(1 0 0 1 912.6341 898.9765)" class="st0 st1 st2">Parking</text>
		<circle class="st3" cx="906.6" cy="899" r="3"/>
</g>
<!--  #################################  -->

<g id="trail-path" display="none">
	<path display="inline" fill="none" stroke="#010101" stroke-width="5" stroke-miterlimit="10"
		  d="M558.6,574.5c-1.6,0.1-22-19.2-22.6-12.3c-0.3,3.4-11.4-3.8-16-3.3c-7.7,0.8-16.5-29.6-21.7-23.7
		c-1.5,1.7-7,3.5-8.1,7.2c-0.4,1.5,1,5.9,0.7,7.7c-0.8,3.6,11,11.7,10.4,16.1c-0.2,2.1-6.1,3.6-6.3,5.8c-0.2,2.4,5.4,3.6,5.2,6.1
		c-0.5,9,2.1,19.8,2.4,27.1c0.3,7.1-1.7,10.8-1,15.9c0.9,6.3-0.5,8.1,0.8,14.8c0.4,2.3-11.8,10.6-11.3,13
		c0.9,4.7,14.6,17.8,15.7,22.7c1.4,6,0.1,14.4,1.7,20.3c0.5,2.1-8.9-5.9-8.3-3.8c0.5,1.9,0.6,10,1.1,11.9c0.6,2,6.1,1.2,6.7,3.2
		c1.1,3.8,14.6,22.3,15.9,26c0.8,2.5-4.8,9.7-4,12.1c0.9,2.6,13.7,1.7,14.6,4.1c1.2,3.3,0.6,9,1.7,12.1c2,5.9-0.1,13.2,1.4,18.1
		c1.3,4.3,3.6,8.2,4.8,11.7c1.3,3.7,2.6,7.7,3.6,10.6c0.2,0.6,2.9,4.9,3.3,8.6c0.3,2.8-2.1,4.7-0.1,7.1c2,2.4,6.9,4.1,9.6,7.1
		c2.2,2.5,2.8,13.9,5.3,16.8c1.5,1.7,8.6,8,10.2,9.9c1.3,1.4,9.7,2.3,11.7,2.7c2.8,0.6,8.5-1.7,10.2-1.7c2.2,0,32.9-4.5,34.7-5.3
		c5.7-2.8,14.3-11.1,17.1-9.6c2,1.1,13.6,28.7,15.9,31.6c4.9,6.2,3.4,17.8,12.9,31.3c13.6,19.4,22.9,42.7,36.2,60.7
		c10.1,13.6,24.5,21.9,33.4,35.9c1.1,1.8,1,5,6.6,15.1c2.3,4.1,12,5.7,14.8,10.6c2.7,4.6,9.1,7.3,11.4,12.3
		c1.2,2.6-4.4,7.5-3.4,10.1c0.9,2.3,5.5,5.6,6.4,7.8c1.7,4,1.1,10.1,3,14c0.9,2,5.9,17.1,10.4,17.8c3.7,0.5,5.4-3.6,10.6-4.5
		c2.6-0.4-4.4-4.4-3.6-7.1c1-3.3,1.9-4.5,2.2-7.2c0.3-2.1-0.9-7.8,0.2-8c4-0.6,8.6,5.7,13.2,5.8c6.3,0,23-5.4,28.4-8.6
		c2.7-1.6-0.7-8.6,5.1-12.1c5.7-3.5,11.3-28.7,19-33.6c5.1-3.3,11.1,5.3,16.6,3c0.7-0.3,4.1-4.6,7.8-3.8
		c2.9,0.6,17.4-17.3,21.4-16.1c2.2,0.7,4.8,0.5,7.1,1.6c1.6,0.7,6-5.9,7.7-5c3.3,1.7,21.2,11.2,30.6,20.2
		c12.1,11.7,16.3,14.7,19.2,12.6c3.6-2.6-1.2-4.7-5.9-16.2c-1.2-3.1-1.9-9.4,0.3-13.8c2.2-4.2,7.2-6.5,5.7-10.1
		c-4.1-9.3-15-15.3-21.4-23.2c-3-3.7,3-3.6-2.9-10.3c-2.1-2.3-2.7,5-5.2,2.3c-1.9-2-14.3-4.1-16.3-6.2c-4.1-4.2-9.4-11.5-12.7-16.5
		c-3.4-5.2-11.3-10.3-13.3-14.4c-0.4-0.8-5.6-6.3-8.9-13.4c-2.3-5.1-1.5-10.9-7-17.3c-2.6-3-6.4-5.6-9.3-9
		c-7.5-8.9-8-20.9-17.3-31.7c-6.8-7.8-12.8-15.6-21.7-24.7c-5.9-6-14.6-12.5-20-19.9c-7.7-10.6-12-27.9-19.7-36
		c-10.2-10.8-8.5-21.7-18.3-31c-4.3-4.1-10.4-5.6-14.7-9.3c-10.7-9.4-23.3-21.9-33-29.3c-6.1-4.7-18.8-8.2-24-12
		c-0.5-0.4-8.6-5.7-20.1-16.1c-5-4.5-10.7-10-16.8-16.4c-6.7-7.1-11.9-12.2-20.2-19.6c-3.4-3-7.9-8.1-12.2-11.1
		c-5.2-3.6-14.2-10.5-19.6-14.4c-11.8-8.6-26.1-14.2-36.2-25.3c-6.2-6.8-14.8-18-22.4-26.9c-5.9-6.9-16-11.5-21.6-17.8
		c-6.7-7.7-8.6-16.9-14-23.7c-11.2-13.8-29.9-43.2-52.6-71.2c-9.1-11.1-15.6-22.5-24.7-32.7c-1.9-2.1-12.6-12.5-21.3-26.7
		c-13.2-21.4-25.9-49.3-27.3-52.7c-6.9-15.8-4.5-31.3-7.1-43.1c-1.5-7.1-10.3-14.5-10.9-20.2c-1.2-11.5-5.4-18.3-3.1-24.9
		c0.6-1.8,6.6-6.9,13.8-14c6.1-6,12.6-13.9,21.1-18c7.4-3.5,17-9.2,26-12.9c5.2-2.1,11.8-17.4,17.3-19.6c2.2-0.9,5.4-1,7.8-2.4
		c3.2-1.9,5.6-5.2,8.7-6.2c3.8-1.3,7.5-4.6,11.3-5.8c2.8-0.9,9.4-6.5,12.2-7.3c5.9-1.6,11.8,0.8,17.6-0.4c3.3-0.7,7.3,6,10.4,5.3
		c5.2-1,11.1-8.5,16-9.6c3.3-0.7,7.1,0.4,10.2-0.2c4.8-0.9,11.8-5.1,18.4-12c0.1-0.1,5.6-7.8,12.7-8.4c1.1-0.1,4-3.5,7.8-4
		c5.8-0.8,13.1,1.3,15.3,1.1c6.8-0.6,19.4,8,28.2,7.3c3.8-0.3,9.6-2.3,14.4-2c7.2,0.4,13.7,3.3,20,2.7c2.7-0.3,10.2-3.2,13.3-2.7
		c5.2,0.9,6.3,5.6,10.9,5.1c2.2-0.3,6.5,0.2,10,2c4.2,2.1,7.7,5.7,10.2,5.3c9.2-1.3,9.8,5.8,19.6,8.9c5.9,1.9,10.8,17.4,16.9,20.2
		c7.4,3.4,18.9,8.7,24.7,15.6c5.8,6.8,8.6,14.7,15.3,18.2c3.9,2,7.8,12.5,17.9,19.1c5.7,3.8,18.7,5.2,25.8,10
		c4.7,3.1,6.2,7.4,11.3,10.9c3.8,2.5,19,5.1,22.9,7.8c2.8,1.9,9.3,2.8,12.2,5.3c4.6,4,5.5,9.9,10,13.1c1.9,1.3,10.9,5.3,15.6,9.8
		c6.5,6.3,8.9,13.5,11.6,15.3c2.8,2,8.9,6,13.6,10.7s8.1,10,10.7,11.8c3.3,2.3,4.1,8.2,9.4,10.9c1.8,0.9,7,4.6,9,5.6
		c2.7,1.2,19.9,8.9,22.9,10.2c3.7,1.6,13.2,0.8,17.3,2.4c3.2,1.3,17.7,3.6,21.1,4.9c5.2,1.9,10.5,3.8,16,5.7
		c6.9,2.4,24.8,1.9,31.8,4.3c14.3,4.7,30.5,7.1,43.6,11.6c12,4.1,16.4,7.3,26.4,11.1c1.9,0.7,5.9-1.4,7.8-0.7
		c8.9,3.3,17,9.3,24,12.4c3.6,1.6,8,10,16,19.1c5.2,5.9,14.5,13.8,19.1,21.6c2.7,4.5,0.4,8.9,3.9,13.1c5.3,6.4,13.6,18.3,18.8,24
		c3,3.3,8.1,1.8,19.6,14c1.9,2-2.1,7.8,0,10c5.6,6,23.9,6.4,30.4,13.3c5.8,6.1,29.7,21.1,35.6,27.8c4.3,4.8,7.3,13.1,12.7,19.1
		c6.1,6.9,14.6,11.5,18.2,16.7c4.1,5.8,23.1,23.3,23.6,28.9c0.3,4-3,27.4,0.2,38.9c1.3,4.6-3.1,11.8-1.3,16.9
		c2.3,6.8,9.4,17.4,12.4,24.4c0.9,2,7.8,0.7,8.7,2.7c1,2.2-2,6.5-1.1,8.7c0.6,1.3,4.1,0.7,4.7,2c1.5,3.5,7.5,20.4,8.9,23.8
		c1.1,2.6,6.9-1.1,8.4,1.3c1.5,2.3,6.6,16.2,8.2,18.4c1.6,2.2,4.7,6.2,6.4,7.1c3,1.5,3.2-2.1,6.2-3.3c1.7-0.6-0.5-5.4,1.1-6.4
		c2.9-1.8,9.3-1.6,12.3-3c4.9-2.3,5.8-5.8,5.8-5.8"/>
</g>
<g id="camera-path" display="none">
	<path display="inline" fill="none" stroke="#EC2227" stroke-width="3" stroke-miterlimit="10"
		  d="M442,551.9c0,0-1.8,197.2,27.3,272c15.5,39.7,214.9,199.6,256.7,191.3c27.7-5.5,103.2-191.1,62-411.3
		c-14.7-78.6-201.1-322.7-94.7-384.7c166.5-96.9,777.3,425.3,777.3,425.3"/>
</g>
<g id="points" display="none">
	<circle id="Départ" display="inline" fill="#405b54" cx="558.6" cy="574.5" r="5.8"/>
	<circle id="Lac_miroir" display="inline" fill="#405b54" cx="548.6" cy="813.3" r="5.8"/>
	<circle id="Lac_Sainte-Anne" display="inline" fill="#405b54" cx="795.4" cy="1080.7" r="5.8"/>
	<circle id="Refuge_de_la_Cime" display="inline" fill="#405b54" cx="696" cy="659.6" r="5.8"/>
	<circle id="Lac_de_Clausis" display="inline" fill="#405b54" cx="1455" cy="724.6" r="5.8"/>
</g>
</svg>
